<svg width="64" height="64" viewBox="0 0 64 64" fill="none" xmlns="http://www.w3.org/2000/svg">
<path d="M54.7864 26.3715L52.626 23.5058L53.5318 20.0388C53.7619 19.1628 53.3759 18.2274 52.5889 17.7745L49.4931 15.963L48.9957 12.407C48.8695 11.5086 48.1568 10.7959 47.2659 10.6772L43.7098 10.1798L41.8984 7.08395C41.4381 6.30443 40.5027 5.91838 39.6341 6.1411L36.167 7.04683L33.3014 4.88644C32.5813 4.34449 31.5716 4.34449 30.8515 4.88644L27.9858 7.04683L24.5188 6.1411C23.6428 5.91096 22.7073 6.297 22.2545 7.08395L20.443 10.1798L16.8869 10.6772C15.9886 10.8034 15.2759 11.5161 15.1571 12.407L14.6597 15.963L11.5639 17.7745C10.7844 18.2348 10.3984 19.1628 10.6211 20.0388L11.5268 23.5058L9.36642 26.3715C8.82447 27.0916 8.82447 28.1013 9.36642 28.8214L11.5268 31.6871L10.6211 35.1541C10.3909 36.0301 10.777 36.9655 11.5639 37.4184L14.6597 39.2299L15.1571 42.786C15.2833 43.6843 15.9961 44.397 16.8869 44.5157L20.443 45.0132L22.2545 48.109C22.6034 48.7029 23.2196 49.0592 23.8803 49.1038V53.6027C23.8803 54.011 24.2144 54.3451 24.6227 54.3451C25.0311 54.3451 25.3651 54.011 25.3651 53.6027V48.8291L27.6072 48.2426V55.3399C27.6072 55.4142 27.6295 55.481 27.6517 55.5404L25.3651 57.2553V56.2976C25.3651 55.8893 25.0311 55.5552 24.6227 55.5552C24.2144 55.5552 23.8803 55.8893 23.8803 56.2976V58.7401C23.8803 59.0222 24.0362 59.2747 24.2887 59.4009C24.5411 59.5271 24.838 59.4974 25.0682 59.334L32.0839 54.0704L39.0995 59.334C39.2332 59.4306 39.3891 59.4825 39.545 59.4825C39.6563 59.4825 39.7751 59.4528 39.879 59.4009C40.1315 59.2747 40.2874 59.0148 40.2874 58.7401V49.1038C40.9481 49.0592 41.5643 48.6955 41.9132 48.1015L43.7247 45.0057L47.2808 44.5083C48.1791 44.3821 48.8918 43.6694 49.0106 42.7785L49.508 39.2224L52.6038 37.411C53.3833 36.9507 53.7693 36.0227 53.5466 35.1467L52.6409 31.6797L54.8013 28.814C55.3432 28.0939 55.3432 27.0842 54.8013 26.3641L54.7864 26.3715ZM31.631 52.5559L29.092 54.4639V48.9776L30.8515 50.3065C31.2152 50.5812 31.6458 50.7148 32.0764 50.7148C32.507 50.7148 32.945 50.5812 33.3014 50.3065L35.0609 48.9776V54.4639L32.5219 52.5559C32.2546 52.3555 31.8983 52.3555 31.631 52.5559ZM36.5086 55.5478C36.5308 55.481 36.5531 55.4142 36.5531 55.3474V48.25L38.7951 48.8365V57.2702L36.5086 55.5552V55.5478ZM53.5986 27.9305L51.2229 31.0783C51.0893 31.2565 51.0373 31.4941 51.0967 31.7094L52.0915 35.5253C52.1509 35.7629 52.047 36.0153 51.8391 36.1341L48.4389 38.1311C48.2459 38.2499 48.1123 38.4429 48.0826 38.6731L47.5406 42.5781C47.5035 42.8231 47.3179 43.0087 47.0729 43.0458L43.1605 43.5877C42.9377 43.6174 42.7373 43.7511 42.6185 43.9441L40.6289 47.3443C40.5027 47.5596 40.2502 47.6561 40.0127 47.5967L36.1967 46.6019C35.9814 46.5425 35.7439 46.5945 35.5657 46.7281L32.4179 49.1038C32.2249 49.2523 31.9502 49.2523 31.7572 49.1038L28.6094 46.7281C28.4758 46.6316 28.3199 46.5796 28.164 46.5796C28.1046 46.5796 28.0378 46.587 27.9784 46.6019L24.1624 47.5967C23.9249 47.6561 23.6725 47.5522 23.5537 47.3443L21.5566 43.9441C21.4453 43.7511 21.2448 43.6174 21.0221 43.5877L17.1097 43.0458C16.8647 43.0087 16.6791 42.8231 16.6419 42.5781L16.1 38.6656C16.0703 38.4429 15.9367 38.2425 15.7436 38.1237L12.336 36.1266C12.1282 36.0004 12.0242 35.7554 12.0836 35.5179L13.0784 31.7019C13.1378 31.4792 13.0858 31.2491 12.9522 31.0709L10.5765 27.9231C10.4281 27.7301 10.4281 27.4554 10.5765 27.2624L12.9522 24.1146C13.0858 23.9364 13.1378 23.6989 13.0784 23.4836L12.0836 19.6676C12.0242 19.4301 12.1282 19.1776 12.336 19.0589L15.7436 17.0618C15.9367 16.9504 16.0703 16.75 16.1 16.5273L16.6419 12.6148C16.6791 12.3698 16.8647 12.1842 17.1097 12.1471L21.0221 11.6052C21.2448 11.5755 21.4453 11.4418 21.5566 11.2488L23.5537 7.84862C23.6799 7.64075 23.9323 7.53681 24.1624 7.5962L27.9784 8.59102C28.2011 8.65041 28.4312 8.60587 28.6094 8.46481L31.7572 6.08913C31.9502 5.94065 32.2249 5.94065 32.4179 6.08913L35.5657 8.46481C35.7439 8.59844 35.9814 8.65041 36.1967 8.59102L40.0127 7.5962C40.2502 7.53681 40.5027 7.64075 40.6214 7.84862L42.6185 11.2562C42.7373 11.4493 42.9303 11.5829 43.1605 11.6126L47.0655 12.1545C47.3105 12.1917 47.4961 12.3773 47.5332 12.6223L48.0751 16.5347C48.1048 16.7574 48.2385 16.9579 48.4315 17.0692L51.8317 19.0663C52.0396 19.1925 52.1435 19.4449 52.0841 19.675L51.0893 23.491C51.0299 23.7137 51.0819 23.9438 51.2155 24.122L53.5912 27.2698C53.7397 27.4628 53.7397 27.7375 53.5912 27.9305H53.5986Z" fill="#5F0300"/>
<path d="M34.1331 12.0731C33.7248 12.0211 33.3536 12.3032 33.3016 12.7115C33.2496 13.1198 33.5317 13.491 33.9401 13.543C40.9557 14.4636 46.249 20.5067 46.249 27.5966C46.249 35.4141 39.8867 41.7691 32.0766 41.7691C24.2666 41.7691 17.9042 35.4067 17.9042 27.5966C17.9042 20.5067 23.1975 14.4636 30.2132 13.543C30.6215 13.491 30.9036 13.1198 30.8517 12.7115C30.7997 12.3032 30.4211 12.0211 30.0202 12.0731C22.2695 13.0901 16.4194 19.7643 16.4194 27.5966C16.4194 36.2308 23.4425 43.2539 32.0766 43.2539C40.7107 43.2539 47.7338 36.2308 47.7338 27.5966C47.7338 19.7643 41.8837 13.0901 34.1331 12.0731Z" fill="#5F0300"/>
<path d="M20.146 27.5964C20.146 34.174 25.4987 39.5267 32.0764 39.5267C37.8448 39.5267 42.7744 35.4138 43.8137 29.7568C43.888 29.3559 43.6207 28.9698 43.2198 28.8956C42.8189 28.8288 42.4329 29.0886 42.3586 29.4895C41.4529 34.4487 37.1321 38.0419 32.0838 38.0419C26.3228 38.0419 21.6382 33.3574 21.6382 27.5964C21.6382 21.8354 26.3228 17.1508 32.0838 17.1508C37.1915 17.1508 41.5197 20.796 42.3809 25.822C42.4477 26.2229 42.8338 26.4976 43.2346 26.4308C43.6355 26.364 43.9102 25.9779 43.8434 25.5771C42.8634 19.8383 37.9191 15.666 32.0838 15.666C25.5061 15.666 20.1534 21.0187 20.1534 27.5964H20.146Z" fill="#5F0300"/>
<path d="M36.1447 23.4243L31.0667 30.195L27.9412 27.0695C27.6516 26.7799 27.1839 26.7799 26.8944 27.0695C26.6049 27.359 26.6049 27.8267 26.8944 28.1163L30.6212 31.8431C30.7623 31.9842 30.9479 32.0584 31.1484 32.0584C31.1632 32.0584 31.1855 32.0584 31.2003 32.0584C31.4156 32.0436 31.6161 31.9322 31.7423 31.7615L37.34 24.3003C37.585 23.9737 37.5181 23.506 37.1915 23.261C36.8648 23.016 36.3971 23.0828 36.1521 23.4094L36.1447 23.4243Z" fill="#5F0300"/>
</svg>
