<svg width="101" height="22" viewBox="0 0 101 22" fill="none" xmlns="http://www.w3.org/2000/svg">
<path d="M101 21V20.5H0V21V21.5H101V21Z" fill="#1D1D1D"/>
<path d="M4.72574 15.098C4.04441 15.098 3.42841 14.9813 2.87774 14.748C2.33641 14.5147 1.90708 14.1787 1.58974 13.74C1.27241 13.3013 1.10908 12.7833 1.09974 12.186H3.19974C3.22774 12.5873 3.36774 12.9047 3.61974 13.138C3.88108 13.3713 4.23574 13.488 4.68374 13.488C5.14108 13.488 5.50041 13.3807 5.76174 13.166C6.02308 12.942 6.15374 12.6527 6.15374 12.298C6.15374 12.0087 6.06508 11.7707 5.88774 11.584C5.71041 11.3973 5.48641 11.2527 5.21574 11.15C4.95441 11.038 4.59041 10.9167 4.12374 10.786C3.48908 10.5993 2.97108 10.4173 2.56974 10.24C2.17774 10.0533 1.83708 9.778 1.54774 9.414C1.26774 9.04067 1.12774 8.546 1.12774 7.93C1.12774 7.35133 1.27241 6.84733 1.56174 6.418C1.85108 5.98867 2.25708 5.662 2.77974 5.438C3.30241 5.20467 3.89974 5.088 4.57174 5.088C5.57974 5.088 6.39641 5.33533 7.02174 5.83C7.65641 6.31533 8.00641 6.99667 8.07174 7.874H5.91574C5.89708 7.538 5.75241 7.26267 5.48174 7.048C5.22041 6.824 4.87041 6.712 4.43174 6.712C4.04908 6.712 3.74108 6.81 3.50774 7.006C3.28374 7.202 3.17174 7.48667 3.17174 7.86C3.17174 8.12133 3.25574 8.34067 3.42374 8.518C3.60108 8.686 3.81574 8.826 4.06774 8.938C4.32908 9.04067 4.69308 9.162 5.15974 9.302C5.79441 9.48867 6.31241 9.67533 6.71374 9.862C7.11508 10.0487 7.46041 10.3287 7.74974 10.702C8.03908 11.0753 8.18374 11.5653 8.18374 12.172C8.18374 12.6947 8.04841 13.18 7.77774 13.628C7.50708 14.076 7.11041 14.4353 6.58774 14.706C6.06508 14.9673 5.44441 15.098 4.72574 15.098ZM14.251 7.132C14.839 7.132 15.3617 7.26267 15.819 7.524C16.2763 7.776 16.631 8.154 16.883 8.658C17.1443 9.15267 17.275 9.75 17.275 10.45V15H15.315V10.716C15.315 10.1 15.161 9.62867 14.853 9.302C14.545 8.966 14.125 8.798 13.593 8.798C13.0517 8.798 12.6223 8.966 12.305 9.302C11.997 9.62867 11.843 10.1 11.843 10.716V15H9.88299V4.64H11.843V8.21C12.095 7.874 12.431 7.61267 12.851 7.426C13.271 7.23 13.7377 7.132 14.251 7.132ZM22.5829 15.126C21.8362 15.126 21.1642 14.9627 20.5669 14.636C19.9695 14.3 19.4982 13.8287 19.1529 13.222C18.8169 12.6153 18.6489 11.9153 18.6489 11.122C18.6489 10.3287 18.8215 9.62867 19.1669 9.022C19.5215 8.41533 20.0022 7.94867 20.6089 7.622C21.2155 7.286 21.8922 7.118 22.6389 7.118C23.3855 7.118 24.0622 7.286 24.6689 7.622C25.2755 7.94867 25.7515 8.41533 26.0969 9.022C26.4515 9.62867 26.6289 10.3287 26.6289 11.122C26.6289 11.9153 26.4469 12.6153 26.0829 13.222C25.7282 13.8287 25.2429 14.3 24.6269 14.636C24.0202 14.9627 23.3389 15.126 22.5829 15.126ZM22.5829 13.418C22.9375 13.418 23.2689 13.334 23.5769 13.166C23.8942 12.9887 24.1462 12.7273 24.3329 12.382C24.5195 12.0367 24.6129 11.6167 24.6129 11.122C24.6129 10.3847 24.4169 9.82 24.0249 9.428C23.6422 9.02667 23.1709 8.826 22.6109 8.826C22.0509 8.826 21.5795 9.02667 21.1969 9.428C20.8235 9.82 20.6369 10.3847 20.6369 11.122C20.6369 11.8593 20.8189 12.4287 21.1829 12.83C21.5562 13.222 22.0229 13.418 22.5829 13.418ZM30.0266 8.364C30.2786 8.00933 30.6239 7.71533 31.0626 7.482C31.5106 7.23933 32.0193 7.118 32.5886 7.118C33.2513 7.118 33.8486 7.28133 34.3806 7.608C34.9219 7.93467 35.3466 8.40133 35.6546 9.008C35.9719 9.60533 36.1306 10.3007 36.1306 11.094C36.1306 11.8873 35.9719 12.592 35.6546 13.208C35.3466 13.8147 34.9219 14.286 34.3806 14.622C33.8486 14.958 33.2513 15.126 32.5886 15.126C32.0193 15.126 31.5153 15.0093 31.0766 14.776C30.6473 14.5427 30.2973 14.2487 30.0266 13.894V18.696H28.0666V7.244H30.0266V8.364ZM34.1286 11.094C34.1286 10.6273 34.0306 10.226 33.8346 9.89C33.6479 9.54467 33.3959 9.28333 33.0786 9.106C32.7706 8.92867 32.4346 8.84 32.0706 8.84C31.7159 8.84 31.3799 8.93333 31.0626 9.12C30.7546 9.29733 30.5026 9.55867 30.3066 9.904C30.1199 10.2493 30.0266 10.6553 30.0266 11.122C30.0266 11.5887 30.1199 11.9947 30.3066 12.34C30.5026 12.6853 30.7546 12.9513 31.0626 13.138C31.3799 13.3153 31.7159 13.404 32.0706 13.404C32.4346 13.404 32.7706 13.3107 33.0786 13.124C33.3959 12.9373 33.6479 12.6713 33.8346 12.326C34.0306 11.9807 34.1286 11.57 34.1286 11.094ZM46.4348 9.988C46.9855 10.0907 47.4381 10.366 47.7928 10.814C48.1475 11.262 48.3248 11.7753 48.3248 12.354C48.3248 12.8767 48.1941 13.3387 47.9328 13.74C47.6808 14.132 47.3121 14.44 46.8268 14.664C46.3415 14.888 45.7675 15 45.1048 15H40.8908V5.228H44.9228C45.5855 5.228 46.1548 5.33533 46.6308 5.55C47.1161 5.76467 47.4801 6.06333 47.7228 6.446C47.9748 6.82867 48.1008 7.26267 48.1008 7.748C48.1008 8.31733 47.9468 8.79333 47.6388 9.176C47.3401 9.55867 46.9388 9.82933 46.4348 9.988ZM42.8508 9.26H44.6428C45.1095 9.26 45.4688 9.15733 45.7208 8.952C45.9728 8.73733 46.0988 8.434 46.0988 8.042C46.0988 7.65 45.9728 7.34667 45.7208 7.132C45.4688 6.91733 45.1095 6.81 44.6428 6.81H42.8508V9.26ZM44.8248 13.404C45.3008 13.404 45.6695 13.292 45.9308 13.068C46.2015 12.844 46.3368 12.5267 46.3368 12.116C46.3368 11.696 46.1968 11.3693 45.9168 11.136C45.6368 10.8933 45.2588 10.772 44.7828 10.772H42.8508V13.404H44.8248ZM50.8809 6.32C50.5356 6.32 50.2462 6.21267 50.0129 5.998C49.7889 5.774 49.6769 5.49867 49.6769 5.172C49.6769 4.84533 49.7889 4.57467 50.0129 4.36C50.2462 4.136 50.5356 4.024 50.8809 4.024C51.2262 4.024 51.5109 4.136 51.7349 4.36C51.9682 4.57467 52.0849 4.84533 52.0849 5.172C52.0849 5.49867 51.9682 5.774 51.7349 5.998C51.5109 6.21267 51.2262 6.32 50.8809 6.32ZM51.8469 7.244V15H49.8869V7.244H51.8469ZM55.7434 8.448C55.9954 8.03733 56.322 7.71533 56.7234 7.482C57.134 7.24867 57.6007 7.132 58.1234 7.132V9.19H57.6054C56.9894 9.19 56.5227 9.33467 56.2054 9.624C55.8974 9.91333 55.7434 10.4173 55.7434 11.136V15H53.7834V7.244H55.7434V8.448ZM61.7255 8.854V12.606C61.7255 12.8673 61.7862 13.0587 61.9075 13.18C62.0382 13.292 62.2529 13.348 62.5515 13.348H63.4615V15H62.2295C60.5775 15 59.7515 14.1973 59.7515 12.592V8.854H58.8275V7.244H59.7515V5.326H61.7255V7.244H63.4615V8.854H61.7255ZM69.2393 7.132C69.8273 7.132 70.3499 7.26267 70.8073 7.524C71.2646 7.776 71.6193 8.154 71.8713 8.658C72.1326 9.15267 72.2633 9.75 72.2633 10.45V15H70.3033V10.716C70.3033 10.1 70.1493 9.62867 69.8413 9.302C69.5333 8.966 69.1133 8.798 68.5813 8.798C68.0399 8.798 67.6106 8.966 67.2933 9.302C66.9853 9.62867 66.8313 10.1 66.8313 10.716V15H64.8713V4.64H66.8313V8.21C67.0833 7.874 67.4193 7.61267 67.8393 7.426C68.2593 7.23 68.7259 7.132 69.2393 7.132ZM73.6231 11.094C73.6231 10.31 73.7771 9.61467 74.0851 9.008C74.4025 8.40133 74.8318 7.93467 75.3731 7.608C75.9145 7.28133 76.5165 7.118 77.1791 7.118C77.6831 7.118 78.1638 7.23 78.6211 7.454C79.0785 7.66867 79.4425 7.958 79.7131 8.322V4.64H81.7011V15H79.7131V13.852C79.4705 14.2347 79.1298 14.5427 78.6911 14.776C78.2525 15.0093 77.7438 15.126 77.1651 15.126C76.5118 15.126 75.9145 14.958 75.3731 14.622C74.8318 14.286 74.4025 13.8147 74.0851 13.208C73.7771 12.592 73.6231 11.8873 73.6231 11.094ZM79.7271 11.122C79.7271 10.646 79.6338 10.24 79.4471 9.904C79.2605 9.55867 79.0085 9.29733 78.6911 9.12C78.3738 8.93333 78.0331 8.84 77.6691 8.84C77.3051 8.84 76.9691 8.92867 76.6611 9.106C76.3531 9.28333 76.1011 9.54467 75.9051 9.89C75.7185 10.226 75.6251 10.6273 75.6251 11.094C75.6251 11.5607 75.7185 11.9713 75.9051 12.326C76.1011 12.6713 76.3531 12.9373 76.6611 13.124C76.9785 13.3107 77.3145 13.404 77.6691 13.404C78.0331 13.404 78.3738 13.3153 78.6911 13.138C79.0085 12.9513 79.2605 12.69 79.4471 12.354C79.6338 12.0087 79.7271 11.598 79.7271 11.122ZM83.1114 11.094C83.1114 10.31 83.2654 9.61467 83.5734 9.008C83.8907 8.40133 84.3154 7.93467 84.8474 7.608C85.3887 7.28133 85.9907 7.118 86.6534 7.118C87.2321 7.118 87.7361 7.23467 88.1654 7.468C88.6041 7.70133 88.9541 7.99533 89.2154 8.35V7.244H91.1894V15H89.2154V13.866C88.9634 14.23 88.6134 14.5333 88.1654 14.776C87.7267 15.0093 87.2181 15.126 86.6394 15.126C85.9861 15.126 85.3887 14.958 84.8474 14.622C84.3154 14.286 83.8907 13.8147 83.5734 13.208C83.2654 12.592 83.1114 11.8873 83.1114 11.094ZM89.2154 11.122C89.2154 10.646 89.1221 10.24 88.9354 9.904C88.7487 9.55867 88.4967 9.29733 88.1794 9.12C87.8621 8.93333 87.5214 8.84 87.1574 8.84C86.7934 8.84 86.4574 8.92867 86.1494 9.106C85.8414 9.28333 85.5894 9.54467 85.3934 9.89C85.2067 10.226 85.1134 10.6273 85.1134 11.094C85.1134 11.5607 85.2067 11.9713 85.3934 12.326C85.5894 12.6713 85.8414 12.9373 86.1494 13.124C86.4667 13.3107 86.8027 13.404 87.1574 13.404C87.5214 13.404 87.8621 13.3153 88.1794 13.138C88.4967 12.9513 88.7487 12.69 88.9354 12.354C89.1221 12.0087 89.2154 11.598 89.2154 11.122ZM100.524 7.244L95.7217 18.668H93.6357L95.3157 14.804L92.2077 7.244H94.4057L96.4077 12.662L98.4377 7.244H100.524Z" fill="#1D1D1D"/>
</svg>
